<svg xmlns="http://www.w3.org/2000/svg" xmlns:xlink="http://www.w3.org/1999/xlink" width="500" zoomAndPan="magnify" viewBox="0 0 375 374.999991" height="500" preserveAspectRatio="xMidYMid meet" version="1.0"><defs><g/><clipPath id="84caa36a2a"><path d="M 53 145.988281 L 150.148438 145.988281 L 150.148438 188 L 53 188 Z M 53 145.988281 " clip-rule="nonzero"/></clipPath><clipPath id="5001bae8f8"><path d="M 43.648438 187 L 141 187 L 141 229.238281 L 43.648438 229.238281 Z M 43.648438 187 " clip-rule="nonzero"/></clipPath></defs><g clip-path="url(#84caa36a2a)"><path fill="#ff914d" d="M 53.542969 187.609375 L 69.53125 187.609375 L 82.121094 171.597656 L 66.132812 171.597656 Z M 134.152344 145.984375 L 100.691406 187.609375 L 116.679688 187.609375 L 150.144531 145.984375 Z M 102.113281 156.445312 L 77.117188 187.609375 L 93.105469 187.609375 L 118.101562 156.445312 L 102.113281 156.445312 " fill-opacity="1" fill-rule="nonzero"/></g><g clip-path="url(#5001bae8f8)"><path fill="#f6f6f6" d="M 140.253906 187.609375 L 124.265625 187.609375 L 111.675781 203.621094 L 127.664062 203.621094 Z M 59.644531 229.234375 L 93.105469 187.609375 L 77.117188 187.609375 L 43.652344 229.234375 Z M 91.683594 218.773438 L 116.679688 187.609375 L 100.691406 187.609375 L 75.695312 218.773438 L 91.683594 218.773438 " fill-opacity="1" fill-rule="nonzero"/></g><g fill="#f6f6f6" fill-opacity="1"><g transform="translate(145.481832, 217.27831)"><g><path d="M 18 -41.828125 L 18 -34.28125 L 14.875 -34.28125 L 14.875 -7.5 L 18 -7.5 L 18 0 L 2.765625 0 L 2.765625 -7.5 L 5.90625 -7.5 L 5.90625 -34.28125 L 2.765625 -34.28125 L 2.765625 -41.828125 Z M 18 -41.828125 "/></g></g></g><g fill="#ff914d" fill-opacity="1"><g transform="translate(166.791879, 217.588947)"><g><path d="M 7.0625 -14.1875 C 7.625 -14.1875 8.148438 -14.070312 8.640625 -13.84375 C 9.128906 -13.625 9.554688 -13.320312 9.921875 -12.9375 C 10.296875 -12.5625 10.585938 -12.117188 10.796875 -11.609375 C 11.015625 -11.097656 11.125 -10.546875 11.125 -9.953125 C 11.125 -9.367188 11.015625 -8.820312 10.796875 -8.3125 C 10.585938 -7.800781 10.296875 -7.347656 9.921875 -6.953125 C 9.554688 -6.566406 9.128906 -6.265625 8.640625 -6.046875 C 8.148438 -5.828125 7.625 -5.71875 7.0625 -5.71875 L 3.953125 -5.71875 L 3.953125 0 L 0.9375 0 L 0.9375 -14.1875 Z M 6.65625 -8.484375 C 7.039062 -8.484375 7.375 -8.625 7.65625 -8.90625 C 7.945312 -9.195312 8.09375 -9.546875 8.09375 -9.953125 C 8.09375 -10.359375 7.945312 -10.703125 7.65625 -10.984375 C 7.375 -11.273438 7.039062 -11.421875 6.65625 -11.421875 L 3.953125 -11.421875 L 3.953125 -8.484375 Z M 6.65625 -8.484375 "/></g></g></g><g fill="#ff914d" fill-opacity="1"><g transform="translate(177.74739, 217.588947)"><g><path d="M 11.140625 -9.953125 C 11.140625 -9.503906 11.078125 -9.078125 10.953125 -8.671875 C 10.828125 -8.265625 10.648438 -7.890625 10.421875 -7.546875 C 10.191406 -7.210938 9.914062 -6.914062 9.59375 -6.65625 C 9.28125 -6.394531 8.9375 -6.179688 8.5625 -6.015625 L 13.265625 0 L 9.71875 0 L 5.34375 -5.71875 L 3.984375 -5.71875 L 3.984375 0 L 0.9375 0 L 0.9375 -14.1875 L 7.0625 -14.1875 C 7.625 -14.1875 8.15625 -14.070312 8.65625 -13.84375 C 9.15625 -13.625 9.585938 -13.320312 9.953125 -12.9375 C 10.316406 -12.5625 10.601562 -12.117188 10.8125 -11.609375 C 11.03125 -11.097656 11.140625 -10.546875 11.140625 -9.953125 Z M 6.6875 -8.484375 C 7.070312 -8.484375 7.398438 -8.625 7.671875 -8.90625 C 7.953125 -9.195312 8.09375 -9.546875 8.09375 -9.953125 C 8.09375 -10.359375 7.953125 -10.703125 7.671875 -10.984375 C 7.398438 -11.273438 7.070312 -11.421875 6.6875 -11.421875 L 3.984375 -11.421875 L 3.984375 -8.484375 Z M 6.6875 -8.484375 "/></g></g></g><g fill="#ff914d" fill-opacity="1"><g transform="translate(191.081957, 217.588947)"><g><path d="M 6.09375 -14.1875 L 6.09375 -11.625 L 5.046875 -11.625 L 5.046875 -2.546875 L 6.09375 -2.546875 L 6.09375 0 L 0.9375 0 L 0.9375 -2.546875 L 2 -2.546875 L 2 -11.625 L 0.9375 -11.625 L 0.9375 -14.1875 Z M 6.09375 -14.1875 "/></g></g></g><g fill="#ff914d" fill-opacity="1"><g transform="translate(197.699173, 217.588947)"><g><path d="M 13.359375 -14.1875 L 16.21875 -14.1875 L 16.21875 0 L 13.203125 0 L 13.203125 -9.359375 L 9.8125 -4.625 L 7.40625 -4.625 L 3.984375 -9.21875 L 3.984375 0 L 0.9375 0 L 0.9375 -14.1875 L 3.8125 -14.1875 L 8.625 -7.640625 Z M 13.359375 -14.1875 "/></g></g></g><g fill="#ff914d" fill-opacity="1"><g transform="translate(214.452387, 217.588947)"><g><path d="M 0.953125 -14.1875 L 9.8125 -14.1875 L 9.8125 -11.421875 L 4 -11.421875 L 4 -8.859375 L 9.125 -8.859375 L 9.125 -6.09375 L 4 -6.09375 L 4 -2.734375 L 9.8125 -2.734375 L 9.8125 0 L 0.953125 0 Z M 0.953125 -14.1875 "/></g></g></g><g fill="#f6f6f6" fill-opacity="1"><g transform="translate(217.867901, 217.27831)"><g><path d="M 1.359375 -41.828125 L 31.625 -41.828125 L 31.625 -33.6875 L 20.9375 -33.6875 L 20.9375 0 L 12.03125 0 L 12.03125 -33.6875 L 1.359375 -33.6875 Z M 1.359375 -41.828125 "/></g></g></g><g fill="#ff914d" fill-opacity="1"><g transform="translate(242.079994, 217.588947)"><g><path d="M 6.09375 -14.1875 L 6.09375 -11.625 L 5.046875 -11.625 L 5.046875 -2.546875 L 6.09375 -2.546875 L 6.09375 0 L 0.9375 0 L 0.9375 -2.546875 L 2 -2.546875 L 2 -11.625 L 0.9375 -11.625 L 0.9375 -14.1875 Z M 6.09375 -14.1875 "/></g></g></g><g fill="#ff914d" fill-opacity="1"><g transform="translate(248.697211, 217.588947)"><g><path d="M 13.359375 -14.1875 L 16.21875 -14.1875 L 16.21875 0 L 13.203125 0 L 13.203125 -9.359375 L 9.8125 -4.625 L 7.40625 -4.625 L 3.984375 -9.21875 L 3.984375 0 L 0.9375 0 L 0.9375 -14.1875 L 3.8125 -14.1875 L 8.625 -7.640625 Z M 13.359375 -14.1875 "/></g></g></g><g fill="#ff914d" fill-opacity="1"><g transform="translate(265.450425, 217.588947)"><g><path d="M 0.953125 -14.1875 L 9.8125 -14.1875 L 9.8125 -11.421875 L 4 -11.421875 L 4 -8.859375 L 9.125 -8.859375 L 9.125 -6.09375 L 4 -6.09375 L 4 -2.734375 L 9.8125 -2.734375 L 9.8125 0 L 0.953125 0 Z M 0.953125 -14.1875 "/></g></g></g><g fill="#ff914d" fill-opacity="1"><g transform="translate(275.826156, 217.588947)"><g><path d="M 9.953125 -7.296875 C 10.515625 -6.960938 10.941406 -6.535156 11.234375 -6.015625 C 11.535156 -5.492188 11.6875 -4.894531 11.6875 -4.21875 C 11.6875 -3.582031 11.53125 -2.984375 11.21875 -2.421875 C 10.914062 -1.867188 10.484375 -1.378906 9.921875 -0.953125 C 9.410156 -0.566406 8.832031 -0.269531 8.1875 -0.0625 C 7.539062 0.132812 6.859375 0.242188 6.140625 0.265625 C 5.421875 0.265625 4.734375 0.164062 4.078125 -0.03125 C 3.421875 -0.238281 2.84375 -0.539062 2.34375 -0.9375 C 1.582031 -1.507812 1.0625 -2.203125 0.78125 -3.015625 L 3.578125 -4.3125 C 3.578125 -4.1875 3.625 -4.019531 3.71875 -3.8125 C 3.8125 -3.613281 3.957031 -3.421875 4.15625 -3.234375 C 4.351562 -3.046875 4.613281 -2.882812 4.9375 -2.75 C 5.257812 -2.625 5.65625 -2.5625 6.125 -2.5625 C 6.5 -2.5625 6.828125 -2.609375 7.109375 -2.703125 C 7.398438 -2.796875 7.640625 -2.910156 7.828125 -3.046875 C 8.023438 -3.191406 8.171875 -3.351562 8.265625 -3.53125 C 8.367188 -3.707031 8.421875 -3.890625 8.421875 -4.078125 C 8.421875 -4.296875 8.347656 -4.492188 8.203125 -4.671875 C 8.066406 -4.859375 7.851562 -5.007812 7.5625 -5.125 C 7.03125 -5.3125 6.46875 -5.46875 5.875 -5.59375 C 5.28125 -5.71875 4.703125 -5.875 4.140625 -6.0625 C 3.578125 -6.257812 3.054688 -6.515625 2.578125 -6.828125 C 2.097656 -7.148438 1.71875 -7.601562 1.4375 -8.1875 C 1.1875 -8.6875 1.0625 -9.222656 1.0625 -9.796875 C 1.0625 -10.441406 1.207031 -11.0625 1.5 -11.65625 C 1.800781 -12.257812 2.210938 -12.769531 2.734375 -13.1875 C 3.234375 -13.570312 3.785156 -13.863281 4.390625 -14.0625 C 5.003906 -14.269531 5.65625 -14.375 6.34375 -14.375 C 7.019531 -14.375 7.664062 -14.273438 8.28125 -14.078125 C 8.90625 -13.878906 9.460938 -13.585938 9.953125 -13.203125 C 10.441406 -12.835938 10.820312 -12.414062 11.09375 -11.9375 L 8.8125 -10.375 C 8.539062 -10.757812 8.191406 -11.066406 7.765625 -11.296875 C 7.347656 -11.535156 6.878906 -11.65625 6.359375 -11.65625 C 5.640625 -11.65625 5.082031 -11.492188 4.6875 -11.171875 C 4.289062 -10.859375 4.09375 -10.441406 4.09375 -9.921875 C 4.09375 -9.679688 4.203125 -9.46875 4.421875 -9.28125 C 4.648438 -9.09375 4.9375 -8.925781 5.28125 -8.78125 C 5.632812 -8.632812 6.03125 -8.503906 6.46875 -8.390625 C 6.914062 -8.273438 7.351562 -8.160156 7.78125 -8.046875 C 8.21875 -7.929688 8.628906 -7.8125 9.015625 -7.6875 C 9.398438 -7.570312 9.710938 -7.441406 9.953125 -7.296875 Z M 9.953125 -7.296875 "/></g></g></g></svg>