<svg xmlns="http://www.w3.org/2000/svg" xmlns:xlink="http://www.w3.org/1999/xlink" width="500" zoomAndPan="magnify" viewBox="0 0 375 374.999991" height="500" preserveAspectRatio="xMidYMid meet" version="1.0"><defs><g/><clipPath id="0cde2767f6"><path d="M 14 116.757812 L 160.5 116.757812 L 160.5 179 L 14 179 Z M 14 116.757812 " clip-rule="nonzero"/></clipPath><clipPath id="980e2358c9"><path d="M 0 179 L 146 179 L 146 241.257812 L 0 241.257812 Z M 0 179 " clip-rule="nonzero"/></clipPath></defs><g clip-path="url(#0cde2767f6)"><path fill="#ff914d" d="M 14.902344 179 L 39.003906 179 L 57.980469 155.058594 L 33.878906 155.058594 Z M 136.398438 116.753906 L 85.964844 179 L 110.066406 179 L 160.5 116.753906 Z M 88.109375 132.394531 L 50.433594 179 L 74.535156 179 L 112.210938 132.394531 L 88.109375 132.394531 " fill-opacity="1" fill-rule="nonzero"/></g><g clip-path="url(#980e2358c9)"><path fill="#f6f6f6" d="M 145.597656 179.003906 L 121.496094 179.003906 L 102.519531 202.945312 L 126.621094 202.945312 Z M 24.097656 241.25 L 74.535156 179.003906 L 50.433594 179.003906 L 0 241.25 Z M 72.390625 225.609375 L 110.066406 179.003906 L 85.964844 179.003906 L 48.289062 225.609375 L 72.390625 225.609375 " fill-opacity="1" fill-rule="nonzero"/></g><g fill="#f6f6f6" fill-opacity="1"><g transform="translate(152.915092, 223.807992)"><g><path d="M 27.015625 -62.8125 L 27.015625 -51.46875 L 22.328125 -51.46875 L 22.328125 -11.25 L 27.015625 -11.25 L 27.015625 0 L 4.15625 0 L 4.15625 -11.25 L 8.859375 -11.25 L 8.859375 -51.46875 L 4.15625 -51.46875 L 4.15625 -62.8125 Z M 27.015625 -62.8125 "/></g></g></g><g fill="#ff914d" fill-opacity="1"><g transform="translate(184.914573, 224.274448)"><g><path d="M 10.59375 -21.296875 C 11.4375 -21.296875 12.226562 -21.128906 12.96875 -20.796875 C 13.707031 -20.460938 14.351562 -20.007812 14.90625 -19.4375 C 15.457031 -18.875 15.894531 -18.207031 16.21875 -17.4375 C 16.539062 -16.664062 16.703125 -15.835938 16.703125 -14.953125 C 16.703125 -14.078125 16.539062 -13.253906 16.21875 -12.484375 C 15.894531 -11.710938 15.457031 -11.035156 14.90625 -10.453125 C 14.351562 -9.867188 13.707031 -9.410156 12.96875 -9.078125 C 12.226562 -8.753906 11.4375 -8.59375 10.59375 -8.59375 L 5.953125 -8.59375 L 5.953125 0 L 1.40625 0 L 1.40625 -21.296875 Z M 10 -12.734375 C 10.582031 -12.734375 11.085938 -12.945312 11.515625 -13.375 C 11.941406 -13.8125 12.15625 -14.335938 12.15625 -14.953125 C 12.15625 -15.554688 11.941406 -16.070312 11.515625 -16.5 C 11.085938 -16.925781 10.582031 -17.140625 10 -17.140625 L 5.953125 -17.140625 L 5.953125 -12.734375 Z M 10 -12.734375 "/></g></g></g><g fill="#ff914d" fill-opacity="1"><g transform="translate(201.365521, 224.274448)"><g><path d="M 16.734375 -14.953125 C 16.734375 -14.273438 16.632812 -13.628906 16.4375 -13.015625 C 16.25 -12.410156 15.984375 -11.851562 15.640625 -11.34375 C 15.304688 -10.832031 14.894531 -10.378906 14.40625 -9.984375 C 13.925781 -9.597656 13.410156 -9.285156 12.859375 -9.046875 L 19.90625 0 L 14.59375 0 L 8.015625 -8.59375 L 5.96875 -8.59375 L 5.96875 0 L 1.40625 0 L 1.40625 -21.296875 L 10.59375 -21.296875 C 11.4375 -21.296875 12.234375 -21.128906 12.984375 -20.796875 C 13.734375 -20.460938 14.382812 -20.007812 14.9375 -19.4375 C 15.488281 -18.875 15.925781 -18.207031 16.25 -17.4375 C 16.570312 -16.664062 16.734375 -15.835938 16.734375 -14.953125 Z M 10.03125 -12.734375 C 10.613281 -12.734375 11.113281 -12.945312 11.53125 -13.375 C 11.945312 -13.8125 12.15625 -14.335938 12.15625 -14.953125 C 12.15625 -15.554688 11.945312 -16.070312 11.53125 -16.5 C 11.113281 -16.925781 10.613281 -17.140625 10.03125 -17.140625 L 5.96875 -17.140625 L 5.96875 -12.734375 Z M 10.03125 -12.734375 "/></g></g></g><g fill="#ff914d" fill-opacity="1"><g transform="translate(221.388892, 224.274448)"><g><path d="M 9.15625 -21.296875 L 9.15625 -17.453125 L 7.5625 -17.453125 L 7.5625 -3.8125 L 9.15625 -3.8125 L 9.15625 0 L 1.40625 0 L 1.40625 -3.8125 L 3 -3.8125 L 3 -17.453125 L 1.40625 -17.453125 L 1.40625 -21.296875 Z M 9.15625 -21.296875 "/></g></g></g><g fill="#ff914d" fill-opacity="1"><g transform="translate(231.325397, 224.274448)"><g><path d="M 20.0625 -21.296875 L 24.359375 -21.296875 L 24.359375 0 L 19.828125 0 L 19.828125 -14.046875 L 14.75 -6.9375 L 11.109375 -6.9375 L 5.96875 -13.84375 L 5.96875 0 L 1.40625 0 L 1.40625 -21.296875 L 5.734375 -21.296875 L 12.9375 -11.46875 Z M 20.0625 -21.296875 "/></g></g></g><g fill="#ff914d" fill-opacity="1"><g transform="translate(256.482256, 224.274448)"><g><path d="M 1.4375 -21.296875 L 14.75 -21.296875 L 14.75 -17.140625 L 6 -17.140625 L 6 -13.296875 L 13.6875 -13.296875 L 13.6875 -9.15625 L 6 -9.15625 L 6 -4.109375 L 14.75 -4.109375 L 14.75 0 L 1.4375 0 Z M 1.4375 -21.296875 "/></g></g></g><g fill="#f6f6f6" fill-opacity="1"><g transform="translate(261.611003, 223.807992)"><g><path d="M 2.03125 -62.8125 L 47.484375 -62.8125 L 47.484375 -50.59375 L 31.453125 -50.59375 L 31.453125 0 L 18.078125 0 L 18.078125 -50.59375 L 2.03125 -50.59375 Z M 2.03125 -62.8125 "/></g></g></g><g fill="#ff914d" fill-opacity="1"><g transform="translate(297.968277, 224.274448)"><g><path d="M 9.15625 -21.296875 L 9.15625 -17.453125 L 7.5625 -17.453125 L 7.5625 -3.8125 L 9.15625 -3.8125 L 9.15625 0 L 1.40625 0 L 1.40625 -3.8125 L 3 -3.8125 L 3 -17.453125 L 1.40625 -17.453125 L 1.40625 -21.296875 Z M 9.15625 -21.296875 "/></g></g></g><g fill="#ff914d" fill-opacity="1"><g transform="translate(307.904782, 224.274448)"><g><path d="M 20.0625 -21.296875 L 24.359375 -21.296875 L 24.359375 0 L 19.828125 0 L 19.828125 -14.046875 L 14.75 -6.9375 L 11.109375 -6.9375 L 5.96875 -13.84375 L 5.96875 0 L 1.40625 0 L 1.40625 -21.296875 L 5.734375 -21.296875 L 12.9375 -11.46875 Z M 20.0625 -21.296875 "/></g></g></g><g fill="#ff914d" fill-opacity="1"><g transform="translate(333.061641, 224.274448)"><g><path d="M 1.4375 -21.296875 L 14.75 -21.296875 L 14.75 -17.140625 L 6 -17.140625 L 6 -13.296875 L 13.6875 -13.296875 L 13.6875 -9.15625 L 6 -9.15625 L 6 -4.109375 L 14.75 -4.109375 L 14.75 0 L 1.4375 0 Z M 1.4375 -21.296875 "/></g></g></g><g fill="#ff914d" fill-opacity="1"><g transform="translate(348.641983, 224.274448)"><g><path d="M 14.953125 -10.96875 C 15.796875 -10.457031 16.4375 -9.8125 16.875 -9.03125 C 17.3125 -8.257812 17.53125 -7.363281 17.53125 -6.34375 C 17.53125 -5.375 17.300781 -4.472656 16.84375 -3.640625 C 16.382812 -2.816406 15.734375 -2.082031 14.890625 -1.4375 C 14.128906 -0.863281 13.265625 -0.421875 12.296875 -0.109375 C 11.328125 0.203125 10.300781 0.367188 9.21875 0.390625 C 8.132812 0.390625 7.101562 0.238281 6.125 -0.0625 C 5.144531 -0.363281 4.273438 -0.8125 3.515625 -1.40625 C 2.367188 -2.269531 1.585938 -3.3125 1.171875 -4.53125 L 5.375 -6.484375 C 5.375 -6.285156 5.441406 -6.035156 5.578125 -5.734375 C 5.722656 -5.429688 5.945312 -5.140625 6.25 -4.859375 C 6.550781 -4.578125 6.941406 -4.335938 7.421875 -4.140625 C 7.898438 -3.941406 8.488281 -3.84375 9.1875 -3.84375 C 9.75 -3.84375 10.242188 -3.910156 10.671875 -4.046875 C 11.109375 -4.191406 11.46875 -4.367188 11.75 -4.578125 C 12.039062 -4.785156 12.257812 -5.023438 12.40625 -5.296875 C 12.5625 -5.566406 12.640625 -5.84375 12.640625 -6.125 C 12.640625 -6.445312 12.535156 -6.75 12.328125 -7.03125 C 12.117188 -7.3125 11.796875 -7.53125 11.359375 -7.6875 C 10.554688 -7.96875 9.707031 -8.203125 8.8125 -8.390625 C 7.925781 -8.578125 7.0625 -8.816406 6.21875 -9.109375 C 5.375 -9.398438 4.59375 -9.785156 3.875 -10.265625 C 3.15625 -10.742188 2.582031 -11.414062 2.15625 -12.28125 C 1.78125 -13.039062 1.59375 -13.851562 1.59375 -14.71875 C 1.59375 -15.675781 1.816406 -16.601562 2.265625 -17.5 C 2.710938 -18.40625 3.328125 -19.171875 4.109375 -19.796875 C 4.847656 -20.367188 5.675781 -20.8125 6.59375 -21.125 C 7.519531 -21.4375 8.492188 -21.59375 9.515625 -21.59375 C 10.535156 -21.59375 11.507812 -21.441406 12.4375 -21.140625 C 13.375 -20.835938 14.210938 -20.398438 14.953125 -19.828125 C 15.671875 -19.285156 16.242188 -18.648438 16.671875 -17.921875 L 13.25 -15.59375 C 12.820312 -16.164062 12.289062 -16.628906 11.65625 -16.984375 C 11.03125 -17.335938 10.328125 -17.515625 9.546875 -17.515625 C 8.460938 -17.515625 7.625 -17.269531 7.03125 -16.78125 C 6.445312 -16.300781 6.15625 -15.671875 6.15625 -14.890625 C 6.15625 -14.535156 6.316406 -14.21875 6.640625 -13.9375 C 6.972656 -13.65625 7.40625 -13.40625 7.9375 -13.1875 C 8.46875 -12.96875 9.0625 -12.769531 9.71875 -12.59375 C 10.382812 -12.425781 11.039062 -12.253906 11.6875 -12.078125 C 12.34375 -11.910156 12.960938 -11.738281 13.546875 -11.5625 C 14.128906 -11.382812 14.597656 -11.1875 14.953125 -10.96875 Z M 14.953125 -10.96875 "/></g></g></g></svg>