<svg xmlns="http://www.w3.org/2000/svg" xmlns:xlink="http://www.w3.org/1999/xlink" width="500" zoomAndPan="magnify" viewBox="0 0 375 374.999991" height="500" preserveAspectRatio="xMidYMid meet" version="1.0"><defs><g/></defs><g fill="#4f4c4c" fill-opacity="1"><g transform="translate(0.0000045, 218.64643)"><g><path d="M 45.625 -106.046875 L 45.625 -86.90625 L 37.6875 -86.90625 L 37.6875 -19 L 45.625 -19 L 45.625 0 L 7.03125 0 L 7.03125 -19 L 14.953125 -19 L 14.953125 -86.90625 L 7.03125 -86.90625 L 7.03125 -106.046875 Z M 45.625 -106.046875 "/></g></g></g><g fill="#ff914d" fill-opacity="1"><g transform="translate(53.827057, 219.434073)"><g><path d="M 17.890625 -35.953125 C 19.316406 -35.953125 20.65625 -35.671875 21.90625 -35.109375 C 23.15625 -34.554688 24.242188 -33.796875 25.171875 -32.828125 C 26.097656 -31.867188 26.832031 -30.738281 27.375 -29.4375 C 27.914062 -28.132812 28.1875 -26.738281 28.1875 -25.25 C 28.1875 -23.757812 27.914062 -22.363281 27.375 -21.0625 C 26.832031 -19.757812 26.097656 -18.617188 25.171875 -17.640625 C 24.242188 -16.660156 23.15625 -15.890625 21.90625 -15.328125 C 20.65625 -14.773438 19.316406 -14.5 17.890625 -14.5 L 10.046875 -14.5 L 10.046875 0 L 2.390625 0 L 2.390625 -35.953125 Z M 16.890625 -21.5 C 17.867188 -21.5 18.71875 -21.859375 19.4375 -22.578125 C 20.164062 -23.304688 20.53125 -24.195312 20.53125 -25.25 C 20.53125 -26.257812 20.164062 -27.128906 19.4375 -27.859375 C 18.71875 -28.585938 17.867188 -28.953125 16.890625 -28.953125 L 10.046875 -28.953125 L 10.046875 -21.5 Z M 16.890625 -21.5 "/></g></g></g><g fill="#ff914d" fill-opacity="1"><g transform="translate(81.605198, 219.434073)"><g><path d="M 28.234375 -25.25 C 28.234375 -24.101562 28.070312 -23.015625 27.75 -21.984375 C 27.4375 -20.953125 26.988281 -20.003906 26.40625 -19.140625 C 25.832031 -18.273438 25.140625 -17.515625 24.328125 -16.859375 C 23.523438 -16.203125 22.648438 -15.671875 21.703125 -15.265625 L 33.609375 0 L 24.640625 0 L 13.53125 -14.5 L 10.09375 -14.5 L 10.09375 0 L 2.390625 0 L 2.390625 -35.953125 L 17.890625 -35.953125 C 19.316406 -35.953125 20.660156 -35.671875 21.921875 -35.109375 C 23.191406 -34.554688 24.289062 -33.796875 25.21875 -32.828125 C 26.15625 -31.867188 26.890625 -30.738281 27.421875 -29.4375 C 27.960938 -28.132812 28.234375 -26.738281 28.234375 -25.25 Z M 16.9375 -21.5 C 17.914062 -21.5 18.757812 -21.859375 19.46875 -22.578125 C 20.175781 -23.304688 20.53125 -24.195312 20.53125 -25.25 C 20.53125 -26.257812 20.175781 -27.128906 19.46875 -27.859375 C 18.757812 -28.585938 17.914062 -28.953125 16.9375 -28.953125 L 10.09375 -28.953125 L 10.09375 -21.5 Z M 16.9375 -21.5 "/></g></g></g><g fill="#ff914d" fill-opacity="1"><g transform="translate(115.415528, 219.434073)"><g><path d="M 15.46875 -35.953125 L 15.46875 -29.453125 L 12.78125 -29.453125 L 12.78125 -6.4375 L 15.46875 -6.4375 L 15.46875 0 L 2.390625 0 L 2.390625 -6.4375 L 5.0625 -6.4375 L 5.0625 -29.453125 L 2.390625 -29.453125 L 2.390625 -35.953125 Z M 15.46875 -35.953125 "/></g></g></g><g fill="#ff914d" fill-opacity="1"><g transform="translate(132.193748, 219.434073)"><g><path d="M 33.875 -35.953125 L 41.125 -35.953125 L 41.125 0 L 33.46875 0 L 33.46875 -23.734375 L 24.890625 -11.71875 L 18.765625 -11.71875 L 10.09375 -23.375 L 10.09375 0 L 2.390625 0 L 2.390625 -35.953125 L 9.6875 -35.953125 L 21.859375 -19.375 Z M 33.875 -35.953125 "/></g></g></g><g fill="#ff914d" fill-opacity="1"><g transform="translate(174.672197, 219.434073)"><g><path d="M 2.4375 -35.953125 L 24.890625 -35.953125 L 24.890625 -28.953125 L 10.140625 -28.953125 L 10.140625 -22.46875 L 23.125 -22.46875 L 23.125 -15.46875 L 10.140625 -15.46875 L 10.140625 -6.953125 L 24.890625 -6.953125 L 24.890625 0 L 2.4375 0 Z M 2.4375 -35.953125 "/></g></g></g><g fill="#4f4c4c" fill-opacity="1"><g transform="translate(183.53778, 218.64643)"><g><path d="M 3.4375 -106.046875 L 80.171875 -106.046875 L 80.171875 -85.40625 L 53.09375 -85.40625 L 53.09375 0 L 30.515625 0 L 30.515625 -85.40625 L 3.4375 -85.40625 Z M 3.4375 -106.046875 "/></g></g></g><g fill="#ff914d" fill-opacity="1"><g transform="translate(244.928588, 219.434073)"><g><path d="M 15.46875 -35.953125 L 15.46875 -29.453125 L 12.78125 -29.453125 L 12.78125 -6.4375 L 15.46875 -6.4375 L 15.46875 0 L 2.390625 0 L 2.390625 -6.4375 L 5.0625 -6.4375 L 5.0625 -29.453125 L 2.390625 -29.453125 L 2.390625 -35.953125 Z M 15.46875 -35.953125 "/></g></g></g><g fill="#ff914d" fill-opacity="1"><g transform="translate(261.706807, 219.434073)"><g><path d="M 33.875 -35.953125 L 41.125 -35.953125 L 41.125 0 L 33.46875 0 L 33.46875 -23.734375 L 24.890625 -11.71875 L 18.765625 -11.71875 L 10.09375 -23.375 L 10.09375 0 L 2.390625 0 L 2.390625 -35.953125 L 9.6875 -35.953125 L 21.859375 -19.375 Z M 33.875 -35.953125 "/></g></g></g><g fill="#ff914d" fill-opacity="1"><g transform="translate(304.185257, 219.434073)"><g><path d="M 2.4375 -35.953125 L 24.890625 -35.953125 L 24.890625 -28.953125 L 10.140625 -28.953125 L 10.140625 -22.46875 L 23.125 -22.46875 L 23.125 -15.46875 L 10.140625 -15.46875 L 10.140625 -6.953125 L 24.890625 -6.953125 L 24.890625 0 L 2.4375 0 Z M 2.4375 -35.953125 "/></g></g></g><g fill="#ff914d" fill-opacity="1"><g transform="translate(330.49334, 219.434073)"><g><path d="M 25.25 -18.5 C 26.664062 -17.65625 27.742188 -16.570312 28.484375 -15.25 C 29.234375 -13.9375 29.609375 -12.421875 29.609375 -10.703125 C 29.609375 -9.078125 29.21875 -7.5625 28.4375 -6.15625 C 27.664062 -4.757812 26.570312 -3.519531 25.15625 -2.4375 C 23.863281 -1.457031 22.394531 -0.703125 20.75 -0.171875 C 19.113281 0.347656 17.382812 0.625 15.5625 0.65625 C 13.738281 0.65625 12 0.40625 10.34375 -0.09375 C 8.6875 -0.601562 7.21875 -1.367188 5.9375 -2.390625 C 4.007812 -3.835938 2.691406 -5.59375 1.984375 -7.65625 L 9.078125 -10.953125 C 9.078125 -10.609375 9.191406 -10.179688 9.421875 -9.671875 C 9.660156 -9.171875 10.035156 -8.679688 10.546875 -8.203125 C 11.054688 -7.734375 11.710938 -7.328125 12.515625 -6.984375 C 13.328125 -6.648438 14.328125 -6.484375 15.515625 -6.484375 C 16.460938 -6.484375 17.296875 -6.601562 18.015625 -6.84375 C 18.742188 -7.082031 19.351562 -7.378906 19.84375 -7.734375 C 20.332031 -8.085938 20.703125 -8.492188 20.953125 -8.953125 C 21.210938 -9.410156 21.34375 -9.875 21.34375 -10.34375 C 21.34375 -10.882812 21.164062 -11.390625 20.8125 -11.859375 C 20.457031 -12.335938 19.910156 -12.710938 19.171875 -12.984375 C 17.816406 -13.453125 16.382812 -13.847656 14.875 -14.171875 C 13.375 -14.492188 11.910156 -14.898438 10.484375 -15.390625 C 9.066406 -15.878906 7.75 -16.53125 6.53125 -17.34375 C 5.320312 -18.15625 4.363281 -19.285156 3.65625 -20.734375 C 3.007812 -22.023438 2.6875 -23.394531 2.6875 -24.84375 C 2.6875 -26.46875 3.066406 -28.039062 3.828125 -29.5625 C 4.585938 -31.082031 5.628906 -32.363281 6.953125 -33.40625 C 8.203125 -34.394531 9.601562 -35.148438 11.15625 -35.671875 C 12.707031 -36.191406 14.347656 -36.453125 16.078125 -36.453125 C 17.796875 -36.453125 19.441406 -36.195312 21.015625 -35.6875 C 22.585938 -35.1875 24 -34.445312 25.25 -33.46875 C 26.46875 -32.550781 27.429688 -31.484375 28.140625 -30.265625 L 22.359375 -26.3125 C 21.648438 -27.289062 20.757812 -28.078125 19.6875 -28.671875 C 18.625 -29.265625 17.4375 -29.5625 16.125 -29.5625 C 14.300781 -29.5625 12.890625 -29.15625 11.890625 -28.34375 C 10.890625 -27.53125 10.390625 -26.46875 10.390625 -25.15625 C 10.390625 -24.539062 10.664062 -23.992188 11.21875 -23.515625 C 11.78125 -23.046875 12.507812 -22.625 13.40625 -22.25 C 14.300781 -21.882812 15.304688 -21.554688 16.421875 -21.265625 C 17.535156 -20.984375 18.640625 -20.695312 19.734375 -20.40625 C 20.835938 -20.125 21.878906 -19.828125 22.859375 -19.515625 C 23.847656 -19.210938 24.644531 -18.875 25.25 -18.5 Z M 25.25 -18.5 "/></g></g></g></svg>