<?xml version="1.0" encoding="UTF-8"?>
<svg width="89px" height="27px" viewBox="0 0 89 27" version="1.1" xmlns="http://www.w3.org/2000/svg" xmlns:xlink="http://www.w3.org/1999/xlink">
    <!-- Generator: Sketch 61 (89581) - https://sketch.com -->
    <title>Logo_2</title>
    <desc>Created with Sketch.</desc>
    <g id="Oleez_home" stroke="none" stroke-width="1" fill="none" fill-rule="evenodd">
        <path d="M13.6206055,26.5297852 C14.7827148,26.5297852 15.9049479,26.3788249 16.9873047,26.0769043 C18.0696615,25.7749837 19.0779622,25.3477376 20.012207,24.795166 C20.9464518,24.2425944 21.800944,23.5789388 22.5756836,22.8041992 C23.3504232,22.0294596 24.0112305,21.1721191 24.5581055,20.2321777 C25.1049805,19.2922363 25.5293783,18.2839355 25.8312988,17.2072754 C26.1332194,16.1306152 26.2841797,15.0112305 26.2841797,13.8491211 C26.2841797,12.6870117 26.1332194,11.5647786 25.8312988,10.4824219 C25.5293783,9.4000651 25.1049805,8.39176432 24.5581055,7.45751953 C24.0112305,6.52327474 23.3504232,5.66878255 22.5756836,4.89404297 C21.800944,4.11930339 20.9464518,3.45849609 20.012207,2.91162109 C19.0779622,2.36474609 18.0696615,1.94034831 16.9873047,1.63842773 C15.9049479,1.33650716 14.7827148,1.18554688 13.6206055,1.18554688 C12.4584961,1.18554688 11.3391113,1.33650716 10.2624512,1.63842773 C9.18579102,1.94034831 8.17749023,2.36474609 7.23754883,2.91162109 C6.29760742,3.45849609 5.44026693,4.11930339 4.66552734,4.89404297 C3.89078776,5.66878255 3.22713216,6.52327474 2.67456055,7.45751953 C2.12198893,8.39176432 1.69474284,9.4000651 1.39282227,10.4824219 C1.09090169,11.5647786 0.939941406,12.6870117 0.939941406,13.8491211 C0.939941406,15.0112305 1.09090169,16.1306152 1.39282227,17.2072754 C1.69474284,18.2839355 2.12198893,19.2922363 2.67456055,20.2321777 C3.22713216,21.1721191 3.89078776,22.0294596 4.66552734,22.8041992 C5.44026693,23.5789388 6.29760742,24.2425944 7.23754883,24.795166 C8.17749023,25.3477376 9.18579102,25.7749837 10.2624512,26.0769043 C11.3391113,26.3788249 12.4584961,26.5297852 13.6206055,26.5297852 Z M13.6206055,21.625 C12.5382487,21.625 11.5242513,21.4199219 10.5786133,21.0097656 C9.63297526,20.5996094 8.80696615,20.0413411 8.10058594,19.3349609 C7.39420573,18.6285807 6.8359375,17.8054199 6.42578125,16.8654785 C6.015625,15.9255371 5.81054688,14.9200846 5.81054688,13.8491211 C5.81054688,12.7781576 6.015625,11.7670085 6.42578125,10.8156738 C6.8359375,9.86433919 7.39420573,9.03833008 8.10058594,8.33764648 C8.80696615,7.63696289 9.63297526,7.08154297 10.5786133,6.67138672 C11.5242513,6.26123047 12.5382487,6.05615234 13.6206055,6.05615234 C14.691569,6.05615234 15.7027181,6.26123047 16.6540527,6.67138672 C17.6053874,7.08154297 18.4313965,7.63696289 19.1320801,8.33764648 C19.8327637,9.03833008 20.3881836,9.86433919 20.7983398,10.8156738 C21.2084961,11.7670085 21.4135742,12.7781576 21.4135742,13.8491211 C21.4135742,14.9200846 21.2084961,15.9255371 20.7983398,16.8654785 C20.3881836,17.8054199 19.8327637,18.6285807 19.1320801,19.3349609 C18.4313965,20.0413411 17.6053874,20.5996094 16.6540527,21.0097656 C15.7027181,21.4199219 14.691569,21.625 13.6206055,21.625 Z M33.7011719,26 L33.7011719,0.416503906 L29.0014648,0.416503906 L29.0014648,26 L33.7011719,26 Z M45.6298828,26.3417969 C46.3932292,26.3417969 47.1366374,26.2534993 47.8601074,26.0769043 C48.5835775,25.9003092 49.2728678,25.6411133 49.9279785,25.2993164 C50.5830892,24.9575195 51.192627,24.5416667 51.7565918,24.0517578 C52.3205566,23.561849 52.8190104,23.0092773 53.2519531,22.394043 L53.2519531,22.394043 L49.8339844,18.9589844 C49.6516927,19.3691406 49.4152832,19.7422689 49.1247559,20.0783691 C48.8342285,20.4144694 48.5038249,20.6993001 48.1335449,20.9328613 C47.763265,21.1664225 47.3673503,21.3458659 46.9458008,21.4711914 C46.5242513,21.5965169 46.085612,21.6591797 45.6298828,21.6591797 C45.4475911,21.6591797 45.2652995,21.6506348 45.0830078,21.6335449 C44.9007161,21.6164551 44.7184245,21.5794271 44.5361328,21.5224609 L44.5361328,21.5224609 L53.2861328,10.9780273 C52.8531901,10.362793 52.351888,9.80737305 51.7822266,9.31176758 C51.2125651,8.81616211 50.600179,8.39746094 49.9450684,8.05566406 C49.2899577,7.71386719 48.597819,7.45182292 47.8686523,7.26953125 C47.1394857,7.08723958 46.3932292,6.99609375 45.6298828,6.99609375 C44.3424479,6.99609375 43.1319173,7.22965495 41.998291,7.69677734 C40.8646647,8.16389974 39.8734538,8.81901042 39.0246582,9.66210938 C38.1758626,10.5052083 37.5065104,11.5249023 37.0166016,12.7211914 C36.5266927,13.9174805 36.2817383,15.2390951 36.2817383,16.6860352 C36.2817383,18.0987956 36.5266927,19.3947754 37.0166016,20.5739746 C37.5065104,21.7531738 38.1758626,22.7700195 39.0246582,23.6245117 C39.8734538,24.4790039 40.8646647,25.1455078 41.998291,25.6240234 C43.1319173,26.1025391 44.3424479,26.3417969 45.6298828,26.3417969 Z M41.4941406,19.112793 C41.4029948,18.9532878 41.3289388,18.7709961 41.2719727,18.565918 C41.2150065,18.3608398 41.1665853,18.1472168 41.126709,17.9250488 C41.0868327,17.7028809 41.0583496,17.4835612 41.0412598,17.2670898 C41.0241699,17.0506185 41.015625,16.8569336 41.015625,16.6860352 C41.015625,15.9226888 41.1352539,15.2362467 41.3745117,14.626709 C41.6137695,14.0171712 41.9413249,13.495931 42.3571777,13.0629883 C42.7730306,12.6300456 43.2629395,12.2967936 43.8269043,12.0632324 C44.3908691,11.8296712 44.991862,11.7128906 45.6298828,11.7128906 C45.8577474,11.7128906 46.0770671,11.7242839 46.2878418,11.7470703 C46.4986165,11.7698568 46.7122396,11.8211263 46.9287109,11.9008789 L46.9287109,11.9008789 L41.4941406,19.112793 Z M63.8647461,26.3417969 C64.6280924,26.3417969 65.3715007,26.2534993 66.0949707,26.0769043 C66.8184408,25.9003092 67.5077311,25.6411133 68.1628418,25.2993164 C68.8179525,24.9575195 69.4274902,24.5416667 69.9914551,24.0517578 C70.5554199,23.561849 71.0538737,23.0092773 71.4868164,22.394043 L71.4868164,22.394043 L68.0688477,18.9589844 C67.886556,19.3691406 67.6501465,19.7422689 67.3596191,20.0783691 C67.0690918,20.4144694 66.7386882,20.6993001 66.3684082,20.9328613 C65.9981283,21.1664225 65.6022135,21.3458659 65.1806641,21.4711914 C64.7591146,21.5965169 64.3204753,21.6591797 63.8647461,21.6591797 C63.6824544,21.6591797 63.5001628,21.6506348 63.3178711,21.6335449 C63.1355794,21.6164551 62.9532878,21.5794271 62.7709961,21.5224609 L62.7709961,21.5224609 L71.5209961,10.9780273 C71.0880534,10.362793 70.5867513,9.80737305 70.0170898,9.31176758 C69.4474284,8.81616211 68.8350423,8.39746094 68.1799316,8.05566406 C67.524821,7.71386719 66.8326823,7.45182292 66.1035156,7.26953125 C65.374349,7.08723958 64.6280924,6.99609375 63.8647461,6.99609375 C62.5773112,6.99609375 61.3667806,7.22965495 60.2331543,7.69677734 C59.099528,8.16389974 58.1083171,8.81901042 57.2595215,9.66210938 C56.4107259,10.5052083 55.7413737,11.5249023 55.2514648,12.7211914 C54.761556,13.9174805 54.5166016,15.2390951 54.5166016,16.6860352 C54.5166016,18.0987956 54.761556,19.3947754 55.2514648,20.5739746 C55.7413737,21.7531738 56.4107259,22.7700195 57.2595215,23.6245117 C58.1083171,24.4790039 59.099528,25.1455078 60.2331543,25.6240234 C61.3667806,26.1025391 62.5773112,26.3417969 63.8647461,26.3417969 Z M59.7290039,19.112793 C59.6378581,18.9532878 59.5638021,18.7709961 59.5068359,18.565918 C59.4498698,18.3608398 59.4014486,18.1472168 59.3615723,17.9250488 C59.321696,17.7028809 59.2932129,17.4835612 59.276123,17.2670898 C59.2590332,17.0506185 59.2504883,16.8569336 59.2504883,16.6860352 C59.2504883,15.9226888 59.3701172,15.2362467 59.609375,14.626709 C59.8486328,14.0171712 60.1761882,13.495931 60.592041,13.0629883 C61.0078939,12.6300456 61.4978027,12.2967936 62.0617676,12.0632324 C62.6257324,11.8296712 63.2267253,11.7128906 63.8647461,11.7128906 C64.0926107,11.7128906 64.3119303,11.7242839 64.5227051,11.7470703 C64.7334798,11.7698568 64.9471029,11.8211263 65.1635742,11.9008789 L65.1635742,11.9008789 L59.7290039,19.112793 Z M88.1494141,26 L88.1494141,21.3515625 L80.4418945,21.3515625 L88.1494141,7.73095703 L72.8881836,7.73095703 L72.8881836,12.3793945 L80.5957031,12.3793945 L72.8881836,26 L88.1494141,26 Z" id="Logo_2" fill="#ffffff" fill-rule="nonzero"></path>
    </g>
</svg>