<?xml version="1.0" encoding="UTF-8"?>
<svg width="20px" height="20px" viewBox="0 0 20 20" version="1.1" xmlns="http://www.w3.org/2000/svg" xmlns:xlink="http://www.w3.org/1999/xlink">
    <!-- Generator: Sketch 61 (89581) - https://sketch.com -->
    <title>search</title>
    <desc>Created with Sketch.</desc>
    <g id="Symbols" stroke="none" stroke-width="1" fill="none" fill-rule="evenodd">
        <g id="Header" transform="translate(-870.000000, -31.000000)" fill="#000000" fill-rule="nonzero">
            <g id="Group-4">
                <g id="Group-3" transform="translate(27.000000, 19.000000)">
                    <g id="search" transform="translate(843.000000, 12.000000)">
                        <path d="M19.755102,18.5755102 L15.2612245,14.0816327 C16.5306122,12.5428571 17.2204082,10.6285714 17.2204082,8.6122449 C17.2204082,6.31020408 16.3265306,4.15102041 14.6979592,2.52244898 C13.0734694,0.893877551 10.9102041,5.80034886e-16 8.6122449,5.80034886e-16 C6.31428571,5.80034886e-16 4.15102041,0.893877551 2.52244898,2.52244898 C0.893877551,4.14693878 -5.80034886e-16,6.31020408 -5.80034886e-16,8.6122449 C-5.80034886e-16,10.9102041 0.893877551,13.0734694 2.52244898,14.7020408 C4.14693878,16.3265306 6.31020408,17.2244898 8.6122449,17.2244898 C10.6326531,17.2244898 12.5469388,16.5346939 14.0816327,15.2653061 L18.5755102,19.755102 C18.9020408,20.0816327 19.4285714,20.0816327 19.755102,19.755102 C20.0816327,19.4285714 20.0816327,18.9020408 19.755102,18.5755102 Z M3.70204082,13.5183673 C2.3877551,12.2081633 1.66530612,10.4653061 1.66530612,8.6122449 C1.66530612,6.75918367 2.3877551,5.0122449 3.69795918,3.70204082 C5.00816327,2.39183673 6.75102041,1.66938776 8.60816327,1.66938776 C10.4612245,1.66938776 12.2081633,2.39183673 13.5183673,3.70204082 C14.8285714,5.0122449 15.5510204,6.75510204 15.5510204,8.6122449 C15.5510204,10.4653061 14.8285714,12.2122449 13.5183673,13.522449 C12.2081633,14.8326531 10.4612245,15.555102 8.60816327,15.555102 C6.75510204,15.555102 5.0122449,14.8326531 3.70204082,13.5183673 Z" id="Shape"></path>
                    </g>
                </g>
            </g>
        </g>
    </g>
</svg>